<?xml version="1.0" encoding="utf-8"?>
<!-- Generator: Adobe Illustrator 26.0.3, SVG Export Plug-In . SVG Version: 6.00 Build 0)  -->
<svg version="1.1" id="Layer_1" xmlns="http://www.w3.org/2000/svg" xmlns:xlink="http://www.w3.org/1999/xlink" x="0px" y="0px"
	 viewBox="0 0 24 24" style="enable-background:new 0 0 24 24;" xml:space="preserve">
<style type="text/css">
	.st0{fill:#182918;}
</style>
<path class="st0" d="M19.96,14.99l-1.35-1.35c-0.84-0.83-2.18-0.84-3.03-0.01c-0.45,0.45-1.15,0.52-1.67,0.16
	c-1-0.67-1.87-1.53-2.54-2.53c-0.35-0.53-0.27-1.23,0.17-1.68c0.81-0.84,0.81-2.18-0.02-3.02l-1.35-1.35c-0.84-0.84-2.2-0.84-3.04,0
	L6.76,5.6c-2.02,2.02-1.87,6.27,2.34,10.48c2.54,2.54,5.09,3.6,7.16,3.6c1.23,0.04,2.43-0.41,3.32-1.26l0.39-0.39
	C20.8,17.19,20.8,15.83,19.96,14.99z M19.09,17.16l-0.39,0.39c-1.59,1.59-5.11,1.3-8.75-2.34S6.03,8.06,7.62,6.46l0.39-0.39
	c0.36-0.36,0.95-0.36,1.31,0l1.35,1.35c0.35,0.36,0.36,0.93,0.01,1.29c-0.85,0.86-0.99,2.2-0.33,3.21c0.76,1.14,1.74,2.12,2.89,2.88
	c1.01,0.66,2.35,0.53,3.21-0.32c0.36-0.35,0.94-0.35,1.3,0.01l1.35,1.35C19.45,16.21,19.46,16.79,19.09,17.16
	C19.1,17.16,19.1,17.16,19.09,17.16z"/>
</svg>
