<?xml version="1.0" encoding="utf-8"?>
<!-- Generator: Adobe Illustrator 26.0.3, SVG Export Plug-In . SVG Version: 6.00 Build 0)  -->
<svg version="1.1" id="Layer_1" xmlns="http://www.w3.org/2000/svg" xmlns:xlink="http://www.w3.org/1999/xlink" x="0px" y="0px"
	 viewBox="0 0 24 24" style="enable-background:new 0 0 24 24;" xml:space="preserve">
<style type="text/css">
	.st0{fill:#F15B24;}
	.st1{fill:#FFFFFF;}
</style>
<circle class="st0" cx="12.05" cy="12" r="11.97"/>
<path class="st1" d="M18.27,8.9c0.07-0.19,0.1-0.39,0.12-0.59c0.01-0.24-0.16-0.45-0.4-0.49c-0.38-0.06-0.76-0.06-1.14,0
	c0.01-0.03,0.01-0.07,0.02-0.13c0.02-0.11,0.05-0.21,0.09-0.31c0.06-0.15,0.04-0.32-0.06-0.45c-0.09-0.13-0.25-0.2-0.41-0.19
	l-1.24,0.08c-0.16,0.01-0.3,0.1-0.37,0.23c-0.13,0.23-0.21,0.49-0.23,0.76c-0.51-0.08-0.96-0.02-1.1,0
	c-0.07,0.01-0.14,0.04-0.2,0.08c-0.3-0.13-0.62-0.22-0.95-0.27c0.05-0.17,0.08-0.34,0.09-0.52c0.01-0.24-0.16-0.45-0.4-0.49
	c-0.44-0.07-0.89-0.06-1.33,0.02c0-0.06,0.02-0.12,0.04-0.22c0.02-0.12,0.06-0.24,0.11-0.35c0.06-0.15,0.04-0.32-0.06-0.45
	c-0.09-0.13-0.25-0.2-0.41-0.19L9.06,5.52c-0.16,0.01-0.3,0.1-0.37,0.23C8.53,6.03,8.44,6.33,8.43,6.64
	C7.85,6.54,7.32,6.6,7.16,6.63c-0.2,0.03-0.36,0.2-0.39,0.4C6.74,7.24,6.75,7.45,6.79,7.65C4.73,8.03,3.2,9.84,3.2,11.96v0.59
	c0,3.3,2.69,5.99,5.99,5.99h0.89c0,0,0.01,0,0.01,0c0.81,0,1.59-0.16,2.33-0.48c0.71,0.33,1.5,0.51,2.29,0.51h0.8
	c2.98,0,5.4-2.42,5.4-5.4v-0.53C20.91,10.96,19.83,9.46,18.27,8.9z M14.48,8.66c0.06-0.1,0.17-0.15,0.29-0.13
	c0.13,0.03,0.26,0.08,0.37,0.14c0.08,0.04,0.17,0.03,0.24-0.03c0.07-0.06,0.09-0.15,0.05-0.23c-0.09-0.2-0.11-0.42-0.08-0.64
	c0.01-0.04,0.01-0.06,0.02-0.09c0.03-0.11,0.12-0.18,0.23-0.19l0.31-0.02c0.08-0.01,0.15,0.03,0.21,0.08
	c0.05,0.06,0.08,0.13,0.07,0.21c-0.01,0.09-0.01,0.17-0.01,0.25c0.01,0.16,0.06,0.32,0.14,0.47c0.05,0.09,0.15,0.13,0.24,0.1
	c0.26-0.08,0.52-0.12,0.78-0.13c0.09,0.01,0.17,0.04,0.22,0.12c0.05,0.07,0.06,0.17,0.02,0.25c-0.02,0.05-0.05,0.1-0.08,0.15
	c-0.02,0.04-0.05,0.07-0.07,0.1c-0.18,0.23-0.41,0.41-0.69,0.52c-0.08,0.03-0.13,0.11-0.13,0.2c0,0.09,0.05,0.16,0.13,0.19
	c0.31,0.12,0.58,0.34,0.75,0.62c0.03,0.05,0.05,0.09,0.08,0.14c0.04,0.08,0.03,0.18-0.02,0.25c-0.05,0.07-0.13,0.12-0.22,0.12
	c0,0,0,0-0.01,0c-0.46-0.01-0.82-0.12-1.09-0.32c-0.12-0.08-0.22-0.2-0.28-0.33c-0.04-0.07-0.11-0.12-0.19-0.12
	c-0.12,0.03-0.29-0.02-0.35-0.14c-0.2-0.44-0.48-0.83-0.82-1.17l-0.09-0.08C14.44,8.89,14.42,8.76,14.48,8.66z M7.51,7.36
	c0.05-0.06,0.12-0.1,0.2-0.1c0.51,0,0.91,0.07,1.21,0.23C9,7.54,9.09,7.52,9.16,7.46C9.22,7.4,9.24,7.31,9.21,7.23
	C9.11,7,9.08,6.75,9.12,6.5c0.01-0.05,0.02-0.1,0.03-0.14c0.03-0.1,0.12-0.18,0.23-0.18l0.46-0.03C9.93,6.14,10,6.17,10.05,6.23
	c0.05,0.06,0.08,0.14,0.06,0.22c-0.02,0.12-0.03,0.22-0.02,0.34c0.02,0.18,0.07,0.35,0.15,0.51c0.05,0.09,0.15,0.13,0.24,0.1
	c0.32-0.09,0.64-0.14,0.97-0.14c0.1,0,0.17,0.04,0.21,0.11c0.05,0.07,0.06,0.16,0.03,0.24c-0.03,0.09-0.08,0.17-0.13,0.26
	c-0.2,0.32-0.51,0.57-0.86,0.71c-0.08,0.03-0.13,0.11-0.13,0.2c0,0.09,0.05,0.16,0.13,0.2c0.35,0.13,0.65,0.38,0.85,0.7
	c0.05,0.08,0.09,0.17,0.13,0.26c0.03,0.08,0.02,0.17-0.03,0.24c-0.05,0.07-0.13,0.11-0.21,0.11c0,0,0,0,0,0
	c-0.39,0-0.93-0.06-1.32-0.36C10.01,9.83,9.9,9.7,9.82,9.55c-0.07-0.14-0.3-0.14-0.37,0C9.37,9.7,9.25,9.83,9.11,9.93
	c-0.41,0.31-0.96,0.36-1.27,0.36c-0.05,0-0.09,0-0.12,0c-0.08,0-0.15-0.04-0.2-0.1c-0.05-0.06-0.06-0.14-0.04-0.22
	c0.13-0.52,0.54-0.93,1.06-1.06c0.1-0.03,0.16-0.12,0.15-0.22C8.69,8.59,8.61,8.51,8.51,8.5C8,8.45,7.58,8.08,7.46,7.58
	C7.44,7.5,7.46,7.42,7.51,7.36z M10.08,17.6H9.19c-2.79,0-5.05-2.27-5.05-5.05v-0.59C4.13,10.2,5.47,8.71,7.21,8.53
	c0.01,0.01,0.01,0.02,0.02,0.02C7.3,8.63,7.37,8.7,7.45,8.76C7.36,8.84,7.28,8.93,7.21,9.02c-0.32,0.42-0.48,0.94-0.44,1.47
	c0.01,0.22,0.18,0.4,0.39,0.43c0.24,0.04,1.5,0.2,2.36-0.45c0.04-0.03,0.07-0.06,0.11-0.09c0.04,0.03,0.07,0.06,0.11,0.09
	c0.54,0.41,1.25,0.49,1.74,0.49c0,0,0.01,0,0.01,0c0.21,0,0.41-0.02,0.62-0.05c0.24-0.04,0.41-0.25,0.39-0.49
	c-0.02-0.39-0.14-0.77-0.34-1.1c-0.13-0.21-0.29-0.39-0.47-0.55c0.09-0.08,0.18-0.16,0.25-0.26c1.8,0.13,3.2,1.62,3.2,3.44v0.59
	C15.14,15.34,12.87,17.6,10.08,17.6z M19.97,13.16c0,2.46-2.01,4.47-4.47,4.47h-0.8c-0.4,0.02-0.82-0.05-1.21-0.17
	c1.6-1.11,2.57-2.96,2.58-4.92v-0.59c0-0.16-0.01-0.32-0.03-0.48c0.46,0.26,0.99,0.32,1.38,0.32c0.18,0,0.38-0.01,0.57-0.04
	c0.24-0.04,0.41-0.25,0.39-0.49c-0.02-0.36-0.13-0.71-0.31-1.01c-0.11-0.18-0.24-0.33-0.39-0.47c0.03-0.02,0.05-0.05,0.08-0.07
	c1.31,0.37,2.21,1.55,2.21,2.92V13.16z"/>
</svg>
