<?xml version="1.0" encoding="utf-8"?>
<!-- Generator: Adobe Illustrator 26.0.3, SVG Export Plug-In . SVG Version: 6.00 Build 0)  -->
<svg version="1.1" id="Layer_1" xmlns="http://www.w3.org/2000/svg" xmlns:xlink="http://www.w3.org/1999/xlink" x="0px" y="0px"
	 viewBox="0 0 24 24" style="enable-background:new 0 0 24 24;" xml:space="preserve">
<style type="text/css">
	.st0{fill:#F7B132;}
	.st1{fill:#FFFFFF;}
</style>
<circle class="st0" cx="12" cy="12" r="11.97"/>
<path class="st1" d="M12,4.33c-4.23,0-7.67,3.44-7.67,7.67c0,2.05,0.8,3.98,2.25,5.43c1.45,1.45,3.38,2.25,5.43,2.25
	c4.23,0,7.67-3.44,7.67-7.67S16.23,4.33,12,4.33z M11.96,9.8c1.21,0,2.19,0.99,2.19,2.22c0,1.19-0.93,2.15-2.13,2.18
	c-0.05,0-0.1-0.01-0.15,0c-1.19-0.04-2.12-1.01-2.12-2.21C9.74,10.79,10.74,9.8,11.96,9.8z M11.86,15.28c0.04,0.01,0.13,0.01,0.17,0
	c1.57,0.03,3.02,0.73,4.01,1.94c-1.15,0.9-2.58,1.39-4.04,1.39c-1.5,0-2.95-0.51-4.11-1.45C8.88,15.98,10.32,15.3,11.86,15.28z
	 M14,14.54c0.76-0.62,1.22-1.55,1.22-2.55c0-1.8-1.48-3.26-3.29-3.26c-1.8,0-3.26,1.48-3.26,3.29c0,0.98,0.45,1.91,1.21,2.52
	c-1.07,0.37-2.04,1.02-2.78,1.89C6,15.21,5.4,13.65,5.4,12c0-3.64,2.96-6.6,6.6-6.6s6.6,2.96,6.6,6.6c0,1.68-0.63,3.26-1.77,4.49
	C16.08,15.59,15.1,14.92,14,14.54z"/>
</svg>
