<?xml version="1.0" encoding="utf-8"?>
<!-- Generator: Adobe Illustrator 26.0.3, SVG Export Plug-In . SVG Version: 6.00 Build 0)  -->
<svg version="1.1" id="Layer_1" xmlns="http://www.w3.org/2000/svg" xmlns:xlink="http://www.w3.org/1999/xlink" x="0px" y="0px"
	 viewBox="0 0 24 24" style="enable-background:new 0 0 24 24;" xml:space="preserve">
<style type="text/css">
	.st0{fill:#182918;}
</style>
<path class="st0" d="M22.57,11.51c0,0.56-0.46,1.01-1.01,1.01H10.2c-0.56,0-1.01-0.46-1.01-1.01s0.46-1.01,1.01-1.01h11.36
	C22.11,10.49,22.57,10.95,22.57,11.51z M22.57,17.59c0,0.56-0.46,1.01-1.01,1.01H10.2c-0.56,0-1.01-0.46-1.01-1.01
	c0-0.56,0.46-1.01,1.01-1.01h11.36C22.11,16.58,22.57,17.03,22.57,17.59z M6.75,11.51c0,0.56-0.46,1.01-1.01,1.01H3.81
	c-0.56,0-1.01-0.46-1.01-1.01s0.46-1.01,1.01-1.01h1.93C6.3,10.49,6.75,10.95,6.75,11.51z M6.75,17.59c0,0.56-0.46,1.01-1.01,1.01
	H3.81c-0.56,0-1.01-0.46-1.01-1.01c0-0.56,0.46-1.01,1.01-1.01h1.93C6.3,16.58,6.75,17.03,6.75,17.59z M22.57,5.43
	c0,0.56-0.46,1.01-1.01,1.01H10.2c-0.56,0-1.01-0.46-1.01-1.01s0.46-1.01,1.01-1.01h11.36C22.11,4.41,22.57,4.87,22.57,5.43z
	 M6.75,5.43c0,0.56-0.46,1.01-1.01,1.01H3.81c-0.56,0-1.01-0.46-1.01-1.01s0.46-1.01,1.01-1.01h1.93C6.3,4.41,6.75,4.87,6.75,5.43z"
	/>
</svg>
