<?xml version="1.0" encoding="utf-8"?>
<!-- Generator: Adobe Illustrator 26.0.3, SVG Export Plug-In . SVG Version: 6.00 Build 0)  -->
<svg version="1.1" id="Layer_1" xmlns="http://www.w3.org/2000/svg" xmlns:xlink="http://www.w3.org/1999/xlink" x="0px" y="0px"
	 viewBox="0 0 24 24" style="enable-background:new 0 0 24 24;" xml:space="preserve">
<style type="text/css">
	.st0{fill:#182918;}
</style>
<path class="st0" d="M19.88,7.35c0.07-0.21,0.12-0.44,0.13-0.67c0.02-0.28-0.18-0.51-0.45-0.55c-0.43-0.06-0.87-0.06-1.29,0
	c0.01-0.04,0.02-0.08,0.03-0.14c0.02-0.12,0.06-0.24,0.11-0.35c0.07-0.17,0.04-0.36-0.06-0.51c-0.1-0.15-0.28-0.23-0.46-0.22
	L16.47,5c-0.18,0.01-0.34,0.11-0.42,0.26c-0.15,0.26-0.24,0.56-0.26,0.86c-0.58-0.09-1.09-0.02-1.25,0
	c-0.08,0.01-0.16,0.05-0.23,0.09c-0.35-0.14-0.71-0.24-1.08-0.31c0.05-0.19,0.09-0.39,0.1-0.59c0.02-0.28-0.18-0.52-0.45-0.55
	c-0.5-0.08-1.01-0.07-1.51,0.02c0-0.07,0.02-0.14,0.04-0.25c0.03-0.14,0.07-0.27,0.12-0.4c0.07-0.17,0.04-0.36-0.06-0.51
	c-0.11-0.15-0.28-0.23-0.46-0.22l-1.58,0.1C9.26,3.53,9.1,3.63,9.01,3.78c-0.18,0.31-0.28,0.65-0.29,1
	C8.06,4.67,7.46,4.75,7.27,4.78C7.04,4.81,6.86,5,6.83,5.23C6.8,5.47,6.81,5.7,6.85,5.93c-2.34,0.43-4.07,2.49-4.07,4.89v0.67
	c0,3.75,3.05,6.79,6.79,6.79h1.01c0,0,0.01,0,0.01,0c0.92,0,1.8-0.18,2.64-0.54c0.81,0.38,1.7,0.57,2.59,0.58h0.9
	c3.38,0,6.13-2.75,6.13-6.13v-0.6C22.87,9.69,21.66,7.99,19.88,7.35z M15.58,7.08c0.06-0.12,0.2-0.18,0.33-0.14
	c0.15,0.04,0.29,0.09,0.42,0.15c0.09,0.04,0.2,0.03,0.27-0.04c0.07-0.07,0.1-0.17,0.06-0.27c-0.1-0.23-0.13-0.48-0.09-0.72
	c0.01-0.04,0.01-0.07,0.02-0.1c0.03-0.12,0.14-0.2,0.26-0.21l0.35-0.02c0.09-0.01,0.17,0.03,0.23,0.09
	c0.06,0.06,0.09,0.15,0.08,0.24c-0.01,0.1-0.02,0.19-0.01,0.29c0.02,0.18,0.07,0.36,0.16,0.53c0.05,0.1,0.17,0.15,0.27,0.12
	c0.29-0.09,0.59-0.13,0.88-0.14c0.1,0.01,0.2,0.05,0.25,0.13c0.06,0.08,0.06,0.19,0.02,0.28C19.07,7.32,19.04,7.38,19,7.43
	c-0.03,0.04-0.05,0.08-0.08,0.12c-0.2,0.27-0.47,0.47-0.78,0.59C18.06,8.17,18,8.26,18,8.37c0,0.1,0.06,0.19,0.15,0.22
	C18.5,8.72,18.81,8.97,19,9.29c0.03,0.05,0.06,0.11,0.09,0.16c0.05,0.09,0.04,0.2-0.02,0.29c-0.05,0.08-0.15,0.13-0.25,0.13
	c0,0-0.01,0-0.01,0c-0.52-0.01-0.93-0.13-1.23-0.36c-0.13-0.1-0.24-0.23-0.32-0.38c-0.04-0.08-0.12-0.13-0.21-0.13
	c-0.14,0.04-0.33-0.03-0.39-0.15c-0.23-0.49-0.54-0.94-0.93-1.33l-0.1-0.09C15.54,7.34,15.51,7.19,15.58,7.08z M7.67,5.6
	C7.73,5.53,7.81,5.49,7.9,5.49c0.57,0,1.03,0.08,1.38,0.27c0.09,0.05,0.2,0.03,0.27-0.03c0.07-0.07,0.1-0.17,0.06-0.27
	C9.49,5.2,9.46,4.91,9.5,4.63c0.01-0.06,0.02-0.11,0.04-0.16c0.03-0.12,0.14-0.2,0.26-0.21l0.52-0.03c0.09-0.01,0.18,0.03,0.24,0.1
	c0.06,0.07,0.09,0.16,0.07,0.25c-0.02,0.14-0.03,0.25-0.02,0.38c0.02,0.2,0.08,0.4,0.17,0.58c0.05,0.1,0.17,0.15,0.27,0.12
	c0.36-0.11,0.73-0.16,1.1-0.16c0.11,0,0.19,0.05,0.24,0.13c0.05,0.08,0.07,0.18,0.03,0.27c-0.04,0.1-0.09,0.2-0.14,0.29
	c-0.23,0.37-0.57,0.65-0.98,0.81c-0.09,0.03-0.15,0.13-0.15,0.23c0,0.1,0.06,0.19,0.15,0.22c0.4,0.15,0.74,0.44,0.97,0.8
	c0.06,0.09,0.11,0.19,0.15,0.29c0.04,0.09,0.03,0.19-0.03,0.27c-0.05,0.08-0.15,0.13-0.24,0.13c0,0,0,0,0,0
	c-0.44,0-1.05-0.07-1.5-0.41c-0.15-0.11-0.28-0.26-0.37-0.43c-0.08-0.16-0.34-0.16-0.42,0C9.78,8.26,9.65,8.41,9.49,8.53
	C9.03,8.88,8.4,8.93,8.05,8.93c-0.05,0-0.1,0-0.14,0c-0.09,0-0.17-0.05-0.22-0.12C7.64,8.74,7.62,8.65,7.64,8.56
	c0.15-0.59,0.61-1.05,1.2-1.2c0.11-0.03,0.18-0.13,0.18-0.25C9.01,7,8.92,6.91,8.81,6.9C8.23,6.84,7.75,6.42,7.62,5.85
	C7.6,5.76,7.62,5.67,7.67,5.6z M10.59,17.23H9.58c-3.16,0-5.73-2.57-5.73-5.73v-0.67c-0.01-2,1.51-3.68,3.49-3.89
	c0.01,0.01,0.02,0.02,0.02,0.03C7.43,7.04,7.51,7.12,7.6,7.19c-0.1,0.09-0.19,0.19-0.27,0.3c-0.36,0.48-0.54,1.07-0.5,1.67
	c0.02,0.25,0.2,0.45,0.45,0.49c0.28,0.04,1.71,0.22,2.68-0.51c0.04-0.03,0.08-0.06,0.12-0.1c0.04,0.03,0.08,0.07,0.12,0.1
	c0.62,0.46,1.41,0.56,1.97,0.56c0,0,0.01,0,0.01,0c0.23,0,0.47-0.02,0.7-0.05c0.27-0.04,0.46-0.28,0.45-0.55
	c-0.02-0.44-0.16-0.87-0.39-1.25c-0.14-0.23-0.33-0.45-0.53-0.63c0.1-0.09,0.2-0.19,0.29-0.29c2.04,0.15,3.63,1.84,3.63,3.9v0.67
	C16.32,14.66,13.75,17.23,10.59,17.23z M21.81,12.19c0,2.8-2.28,5.07-5.07,5.07h-0.9c-0.46,0.03-0.93-0.06-1.38-0.19
	c1.81-1.26,2.92-3.35,2.92-5.58v-0.67c0-0.18-0.01-0.36-0.03-0.54c0.52,0.3,1.13,0.36,1.57,0.36c0.2,0,0.43-0.02,0.64-0.05
	c0.27-0.04,0.46-0.28,0.45-0.55c-0.02-0.4-0.15-0.8-0.36-1.15c-0.12-0.2-0.27-0.38-0.44-0.53c0.03-0.03,0.06-0.05,0.09-0.08
	c1.48,0.42,2.51,1.76,2.51,3.31V12.19z"/>
</svg>
