<?xml version="1.0" encoding="utf-8"?>
<!-- Generator: Adobe Illustrator 26.0.3, SVG Export Plug-In . SVG Version: 6.00 Build 0)  -->
<svg version="1.1" id="Layer_1" xmlns="http://www.w3.org/2000/svg" xmlns:xlink="http://www.w3.org/1999/xlink" x="0px" y="0px"
	 viewBox="0 0 24 24" style="enable-background:new 0 0 24 24;" xml:space="preserve">
<style type="text/css">
	.st0{fill:#182918;}
</style>
<path class="st0" d="M16.42,13.27L16.42,13.27C16.42,13.27,16.42,13.27,16.42,13.27z M16.42,13.27
	C16.41,13.27,16.41,13.27,16.42,13.27C16.41,13.27,16.41,13.27,16.42,13.27L16.42,13.27z M10.64,11.5c0,0.75,0.61,1.36,1.36,1.36
	c0.75,0,1.36-0.61,1.36-1.36c0-0.75-0.61-1.36-1.36-1.36C11.25,10.14,10.64,10.75,10.64,11.5z M9.28,11.5c0-1.5,1.22-2.72,2.72-2.72
	c1.5,0,2.72,1.22,2.72,2.72c0,1.5-1.22,2.72-2.72,2.72C10.5,14.22,9.28,13,9.28,11.5z M10.19,15.9c0.69,0.26,1.16,0.91,1.18,1.67
	v0.06c0,0.38,0.31,0.68,0.68,0.68c0.38,0,0.68-0.31,0.68-0.68v-0.12c0-0.72,0.43-1.37,1.09-1.65c0.67-0.3,1.46-0.16,2,0.37
	l0.04,0.04c0.13,0.13,0.3,0.2,0.48,0.2s0.35-0.07,0.48-0.2c0.13-0.13,0.2-0.3,0.2-0.48c0-0.18-0.07-0.35-0.2-0.48l-0.05-0.05
	c-0.51-0.53-0.66-1.31-0.36-1.98c0,0,0,0,0,0l0,0c0,0,0,0,0,0c0.28-0.66,0.93-1.09,1.65-1.09h0.06c0.38,0,0.68-0.31,0.68-0.68
	c0-0.38-0.31-0.68-0.68-0.68h-0.12c-0.72,0-1.37-0.43-1.65-1.09c-0.03-0.06-0.04-0.12-0.05-0.18c-0.23-0.64-0.07-1.37,0.42-1.86
	l0.04-0.04c0.13-0.13,0.2-0.3,0.2-0.48s-0.07-0.35-0.2-0.48c-0.13-0.13-0.3-0.2-0.48-0.2c-0.18,0-0.35,0.07-0.48,0.2l-0.05,0.05
	c-0.53,0.52-1.32,0.66-1.98,0.36c-0.66-0.28-1.09-0.93-1.09-1.65V5.37c0-0.38-0.31-0.68-0.68-0.68c-0.38,0-0.68,0.31-0.68,0.68v0.12
	c0,0.72-0.43,1.37-1.09,1.65c-0.06,0.03-0.12,0.04-0.18,0.05C9.4,7.42,8.68,7.26,8.18,6.77L8.14,6.73c-0.13-0.13-0.3-0.2-0.48-0.2
	c-0.18,0-0.35,0.07-0.48,0.2c-0.13,0.13-0.2,0.3-0.2,0.48s0.07,0.35,0.2,0.48l0.05,0.05C7.74,8.27,7.88,9.06,7.6,9.69
	c-0.26,0.69-0.91,1.16-1.67,1.18H5.87c-0.38,0-0.68,0.31-0.68,0.68c0,0.38,0.31,0.68,0.68,0.68h0.12c0.72,0,1.37,0.43,1.65,1.09
	c0.3,0.67,0.15,1.46-0.37,2l-0.04,0.04c-0.13,0.13-0.2,0.3-0.2,0.48c0,0.18,0.07,0.35,0.2,0.48c0.13,0.13,0.3,0.2,0.48,0.2
	c0.18,0,0.35-0.07,0.48-0.2l0.05-0.05c0.35-0.34,0.81-0.52,1.27-0.52C9.74,15.76,9.98,15.8,10.19,15.9z M10.01,17.63
	c0-0.23-0.12-0.39-0.33-0.47c-0.17-0.07-0.36-0.04-0.48,0.08l-0.04,0.04c-0.38,0.38-0.9,0.6-1.45,0.6c-0.54,0-1.06-0.22-1.44-0.6
	c-0.38-0.38-0.6-0.9-0.6-1.44c0-0.54,0.22-1.06,0.6-1.44l0.04-0.04c0.13-0.13,0.16-0.32,0.09-0.5c-0.07-0.16-0.23-0.27-0.4-0.27
	H5.87c-1.13,0-2.04-0.91-2.04-2.04c0-1.13,0.91-2.04,2.04-2.04c0.23,0,0.39-0.12,0.47-0.33C6.41,9.02,6.38,8.82,6.26,8.7L6.21,8.66
	c-0.38-0.38-0.6-0.9-0.6-1.44c0-0.54,0.22-1.06,0.6-1.44c0.38-0.38,0.9-0.6,1.44-0.6c0.54,0,1.06,0.22,1.44,0.6L9.14,5.8
	c0.13,0.13,0.32,0.16,0.49,0.09c0.04-0.02,0.09-0.03,0.14-0.04c0.12-0.08,0.19-0.22,0.19-0.36V5.37c0-1.13,0.91-2.04,2.04-2.04
	c1.13,0,2.04,0.91,2.04,2.04v0.06c0,0.18,0.11,0.34,0.27,0.41c0.17,0.07,0.36,0.04,0.48-0.08l0.04-0.04c0.38-0.38,0.9-0.6,1.44-0.6
	c0.54,0,1.06,0.22,1.44,0.6c0.38,0.38,0.6,0.9,0.6,1.44s-0.22,1.06-0.6,1.44L17.7,8.64c-0.13,0.13-0.16,0.32-0.09,0.49
	c0.02,0.04,0.03,0.09,0.04,0.14c0.08,0.12,0.22,0.19,0.36,0.19h0.12c1.13,0,2.04,0.91,2.04,2.04c0,1.13-0.91,2.04-2.04,2.04h-0.06
	c-0.18,0-0.34,0.11-0.41,0.27c-0.08,0.17-0.04,0.37,0.08,0.49l0.04,0.04c0.38,0.38,0.6,0.9,0.6,1.44c0,0.54-0.22,1.06-0.6,1.44
	c-0.38,0.38-0.9,0.6-1.44,0.6c-0.54,0-1.06-0.22-1.44-0.6l-0.04-0.04c-0.13-0.13-0.32-0.16-0.5-0.09c-0.16,0.07-0.27,0.23-0.27,0.4
	v0.12c0,1.13-0.91,2.04-2.04,2.04C10.93,19.67,10.01,18.76,10.01,17.63z"/>
</svg>
