<?xml version="1.0" encoding="utf-8"?>
<!-- Generator: Adobe Illustrator 26.0.3, SVG Export Plug-In . SVG Version: 6.00 Build 0)  -->
<svg version="1.1" id="Layer_1" xmlns="http://www.w3.org/2000/svg" xmlns:xlink="http://www.w3.org/1999/xlink" x="0px" y="0px"
	 viewBox="0 0 24 24" style="enable-background:new 0 0 24 24;" xml:space="preserve">
<style type="text/css">
	.st0{fill:#5AAF60;}
	.st1{fill:#FFFFFF;}
</style>
<circle class="st0" cx="12.16" cy="12.03" r="11.97"/>
<path class="st1" d="M15.35,11.58c-0.25,0-0.46,0.2-0.46,0.46c0,0.25,0.2,0.46,0.46,0.46c0.25,0,0.46-0.2,0.46-0.46
	C15.81,11.78,15.6,11.58,15.35,11.58z M15.35,11.12h1.82v1.82h-1.82c-0.51,0-0.91-0.4-0.91-0.91
	C14.44,11.52,14.84,11.12,15.35,11.12z M8.05,8.42v7.23c-0.05,0-0.12,0-0.16-0.01c-0.34-0.04-0.48-0.1-0.54-0.17
	c-0.06-0.06-0.13-0.2-0.17-0.54C7.14,14.59,7.14,15,7.14,14.31V9.75c0-0.68,0-0.28,0.04-0.62C7.22,8.8,7.29,8.66,7.35,8.6
	c0.06-0.06,0.2-0.13,0.54-0.17C7.94,8.42,8.01,8.42,8.05,8.42L8.05,8.42z M9.42,8.38h5.47c0.68,0,1.19,0,1.53,0.04
	c0.34,0.04,0.48,0.1,0.54,0.17c0.06,0.06,0.13,0.2,0.17,0.54c0.04,0.34,0.04-0.07,0.04,0.62v0.46h-1.82c-0.03,0-0.07,0-0.1,0.01
	c-0.96,0.05-1.72,0.85-1.72,1.81c0,0.97,0.77,1.76,1.72,1.81c0.03,0.01,0.07,0.01,0.1,0.01h1.82v0.46c0,0.68,0,0.28-0.04,0.62
	c-0.04,0.34-0.1,0.48-0.17,0.54c-0.06,0.06-0.2,0.13-0.54,0.17c-0.34,0.04-0.85,0.04-1.53,0.04H9.42c-0.17,0-0.3,0-0.46,0
	c0,0,0,0,0,0V8.39c0,0,0,0,0,0C9.12,8.39,9.25,8.38,9.42,8.38L9.42,8.38z M9.42,7.47c-0.68,0-1.2,0-1.63,0.05
	C7.36,7.57,6.98,7.67,6.71,7.95C6.43,8.23,6.32,8.61,6.28,9.04C6.23,9.46,6.23,9.07,6.23,9.75v4.56c0,0.68,0,0.29,0.05,0.72
	c0.05,0.43,0.15,0.81,0.43,1.08c0.28,0.28,0.66,0.38,1.08,0.43c0.43,0.05,0.95,0.05,1.63,0.05h5.47c0.68,0,1.2,0,1.63-0.05
	c0.43-0.05,0.81-0.15,1.08-0.43c0.28-0.28,0.38-0.66,0.43-1.08c0.05-0.43,0.05-0.03,0.05-0.72V13.4v-2.74V9.75
	c0-0.68,0-0.29-0.05-0.72c-0.05-0.43-0.15-0.81-0.43-1.08c-0.28-0.28-0.66-0.38-1.08-0.43c-0.43-0.05-0.95-0.05-1.63-0.05H9.42z"/>
</svg>
